Simulation
nRows=35
nColumns=15
endheader
time  TH_x TH_y TH_z SC_y  SC_z  SC_x  AC_y  AC_z  AC_x  GH_y  GH_z  GH_yy  EL_x  PS_y
4.8020000000000005  0.000000  0.000000  0.000000  -38.140263382917325  13.32218153250647  51.03078777627915  55.73055383358104  -7.839907642698703  -3.674271785824896  2.3502153537351806  58.24498843404019  0.9308394196674609  13.608084648049468  120.000000
4.850020000000001  0.000000  0.000000  0.000000  -38.42521196242214  14.073785368845645  51.889127497982486  55.383772797858114  -8.593527091223685  -3.5252279691848987  2.3111430498866996  58.032506189307774  0.9691050028238449  13.564279570926104  120.000000
4.898040000000001  0.000000  0.000000  0.000000  -38.437297277057276  14.78161936746482  52.32751663501326  55.09124264552152  -9.342875688710425  -3.5200062139716817  2.2643885613936856  57.72920953552438  1.1117928851576548  13.419516557892326  120.000000
4.946060000000001  0.000000  0.000000  0.000000  -38.16087137201227  15.323589876151257  52.464114358949004  54.91888086930317  -10.074501805721845  -3.651484408945855  2.1513885316511145  57.24707037676297  1.3935751193208967  13.215537177801407  120.000000
4.99408  0.000000  0.000000  0.000000  -37.60558994567377  15.587003613588465  52.40429724222218  54.92403303209256  -10.775179055647174  -3.902818866636304  1.9178135493250565  56.48895840875223  1.8331955250015222  12.988058451583367  120.000000
5.0421000000000005  0.000000  0.000000  0.000000  -36.81745169660309  15.569688389299738  52.10681433436504  55.1273174390595  -11.427541660770919  -4.228297203142251  1.5464405295395482  55.41462880483828  2.4077182065778278  12.768826683357924  120.000000
5.090120000000001  0.000000  0.000000  0.000000  -35.86437950513559  15.366662695822395  51.41179391219496  55.51070151053518  -12.011158615489396  -4.55078815451383  1.0666092667316733  54.05376928196771  3.0558695084391587  12.584699585878198  120.000000
5.138140000000001  0.000000  0.000000  0.000000  -34.813502901106446  15.063969656672732  50.19456294087394  56.036935610495654  -12.510660215352583  -4.794960984532408  0.5377459480851244  52.458014391627415  3.710409810728537  12.453218173159343  120.000000
5.186160000000001  0.000000  0.000000  0.000000  -33.72342775127843  14.700226378916337  48.418479467288186  56.65702622179983  -12.91967019809708  -4.910846895590332  0.03589669408191555  50.680876796599854  4.327042252846319  12.379801220134205  120.000000
5.234180000000001  0.000000  0.000000  0.000000  -32.64784909287648  14.281018143796224  46.10860587668183  57.30825504954457  -13.23957640763494  -4.884157369892781  -0.35024708971526053  48.7829070568533  4.895161650973088  12.35669929284146  120.000000
5.2822000000000005  0.000000  0.000000  0.000000  -31.632045581993832  13.788471177813  43.339145320840174  57.90985919865444  -13.484705076959015  -4.752092507481355  -0.5258009173251725  46.82701778929892  5.434766102085437  12.36594027155718  120.000000
5.330220000000001  0.000000  0.000000  0.000000  -30.71125945848714  13.19033810952483  40.22737085638933  58.3661254887306  -13.677726374031652  -4.601352427180946  -0.3947032345410941  44.86216935072695  5.976131718442403  12.384771364450197  120.000000
5.378240000000001  0.000000  0.000000  0.000000  -29.91645289124849  12.468966421239505  36.90601559595304  58.5911537797042  -13.809767865153686  -4.5049784605781085  0.11372939335459752  42.886221862999314  6.552556816748721  12.387909629698571  120.000000
5.426260000000001  0.000000  0.000000  0.000000  -29.268214422326064  11.64149892507808  33.51007087602496  58.53247911619607  -13.828181251601151  -4.501270362790718  1.0434569071518738  40.84160589611003  7.182894933720875  12.354067431872716  120.000000
5.474280000000001  0.000000  0.000000  0.000000  -28.760622107600923  10.751743060017693  30.17389331548649  58.16782549507698  -13.663669522750538  -4.628508731824476  2.446192928750784  38.65481202824006  7.836219251954604  12.27975635957219  120.000000
5.5223  0.000000  0.000000  0.000000  -28.35848239247334  9.85923222353046  27.01334869024389  57.50448055240012  -13.247162892374174  -4.9203221200519645  4.392166630326238  36.26244199792583  8.422622361231378  12.177194626413469  120.000000
5.570320000000001  0.000000  0.000000  0.000000  -28.018882393113024  9.014564926290628  24.124659520788118  56.58964957440135  -12.526488293473154  -5.390568745179728  6.9638108589792225  33.63457984136198  8.811838899371732  12.070254196347399  120.000000
5.618340000000001  0.000000  0.000000  0.000000  -27.709435694696054  8.249721559108602  21.576313756245654  55.50032350816264  -11.487367374321629  -6.025585705947252  10.251169369161643  30.79594882714967  8.855982356349333  11.988609739730876  120.000000
5.666360000000001  0.000000  0.000000  0.000000  -27.418075680803273  7.575265875857137  19.39663574681664  54.314329154077846  -10.158069640938708  -6.789126965038132  14.356058905398264  27.8367617504747  8.397037190261821  11.961625644275315  120.000000
5.714380000000001  0.000000  0.000000  0.000000  -27.14983467778592  6.986442027727844  17.5717639543743  53.09487151682847  -8.603667710717897  -7.631426501141111  19.379169510917666  24.90991407974159  7.280112439738379  12.012539910983698  120.000000
5.762400000000001  0.000000  0.000000  0.000000  -26.91442644153914  6.461836614385586  16.053846242028477  51.891968517685555  -6.914731676394366  -8.49714677061362  25.345541673814907  22.201108474298263  5.415277481725046  12.15800148389454  120.000000
5.810420000000001  0.000000  0.000000  0.000000  -26.711742946432324  5.969745103630695  14.771983645688206  50.7394907428442  -5.186889035235472  -9.34022589248265  32.13145162601199  19.877973017799622  2.836080334616763  12.40992022335545  120.000000
5.858440000000001  0.000000  0.000000  0.000000  -26.535270748416163  5.476515775882303  13.651148230410355  49.65982988000921  -3.4891642110343084  -10.129046024450943  39.42152662826022  18.05196281089009  -0.27412602997245183  12.772306731217432  120.000000
5.906460000000001  0.000000  0.000000  0.000000  -26.38813382265244  4.965256728950975  12.618293772244934  48.680590405186045  -1.84218440258891  -10.827599614437961  46.75055267286872  16.75989542042909  -3.573845297353928  13.22997339678843  120.000000
5.954480000000001  0.000000  0.000000  0.000000  -26.270675633022645  4.45426770176919  11.607365022716667  47.81777566811414  -0.2546514836644381  -11.378061775760218  53.615677466012436  15.945924972218105  -6.626401527355111  13.760253176965568  120.000000
6.002500000000001  0.000000  0.000000  0.000000  -26.173445641080974  3.96468526529259  10.565402640061178  47.08444526613281  1.2445342976629767  -11.726426330907115  59.56449654451372  15.498701802814598  -9.04689100316179  14.344333952454303  120.000000
6.050520000000001  0.000000  0.000000  0.000000  -26.092341953826004  3.5074213868407074  9.459684932197135  46.502001548905824  2.6210125059374683  -11.840000104844739  64.28005025245521  15.30419322130368  -10.618717573943568  14.956488629419859  120.000000
6.098540000000001  0.000000  0.000000  0.000000  -26.02686373027613  3.094559184192047  8.279663189341989  46.09490087750926  3.8421364633659576  -11.701295012703266  67.57416648950176  15.258693197810839  -11.229017630828395  15.562126871091419  120.000000
6.146560000000001  0.000000  0.000000  0.000000  -25.973555239838316  2.7317445096170663  7.026424270884883  45.8556286930988  4.905592971917077  -11.329874809385396  69.47227864834397  15.28836479669942  -10.930357343575686  16.130643759961114  120.000000
6.194580000000001  0.000000  0.000000  0.000000  -25.929829277091105  2.40926964093744  5.709455587804664  45.71800302395177  5.844944403534729  -10.7861172328134  70.19487925768631  15.36846730590496  -9.91425568626728  16.637858578120557  120.000000
6.242600000000001  0.000000  0.000000  0.000000  -25.8760167757179  2.115690914096669  4.335694591019604  45.60340527623836  6.691883053308934  -10.141215856783178  69.99848153046192  15.506474829067777  -8.36433182474764  17.056339927798362  120.000000
6.2906200000000005  0.000000  0.000000  0.000000  -25.787853359939103  1.838969071763199  2.904492857703628  45.4597497746653  7.475184189033082  -9.45700058204115  69.14383641040129  15.715907538823847  -6.456504107629232  17.36649548552051  120.000000
6.338640000000001  0.000000  0.000000  0.000000  -25.650138482649265  1.5649857397276514  1.413474751842094  45.254842983104545  8.215135373665092  -8.763773614914006  67.8515601644059  15.994238114413447  -4.330869151222404  17.56777299619957  120.000000
6.386660000000001  0.000000  0.000000  0.000000  -25.45628735996024  1.2867100666264526  -0.13808608519454127  44.98941583761833  8.918022230723473  -8.065274128162594  66.2769613232205  16.327357539327178  -2.0757240171350007  17.67659045431598  120.000000
6.434680000000001  0.000000  0.000000  0.000000  -25.20712010574454  1.0016433789099184  -1.7447797507789677  44.66796404132876  9.589542051266202  -7.354739336213669  64.5497397329476  16.693782123024718  0.24072838625302484  17.728471626981204  120.000000
